<svg xmlns="http://www.w3.org/2000/svg" width="184.644" height="64.018" viewBox="0 0 184.644 64.018"><defs><style>.a,.b{fill:#fff;}.b{stroke:rgba(255,255,255,1);stroke-width:0.434px;}</style></defs><g transform="translate(-115.434 -84.173)"><g transform="translate(115.434 84.496)"><g transform="translate(0 0)"><path class="a" d="M140.492,20.126q-2.32,0-4.91,4.234a59.364,59.364,0,0,0-6.194,11.982q-.608,1.419-3.221,2.478-2.635.9-2.635,2.14.631.833,1.014.833h.18a9.877,9.877,0,0,0,2.755-.679c-.09.5-.182.989-.276,1.446-.172.033-.334.062-.542.111q-4.933,4.73-9.009,4.73a6,6,0,0,1-5.946-3.942,47.293,47.293,0,0,0-1.194-5.09,3.8,3.8,0,0,0-3.716-2.342l-1.216-.045a10.073,10.073,0,0,0-6.96,2.905,16.252,16.252,0,0,0-2.856,4,3.738,3.738,0,0,0-.545.325q-3.6,3.739-4.842,4.752-8.626,6.1-13.874,6.1a7.788,7.788,0,0,1-2.095-.338q-3.4-.991-3.4-5.676v-.09a10.706,10.706,0,0,1,1.8-5.451q4.527-5.788,7.816-5.788a1.646,1.646,0,0,1,1.464.743q.45,2.14,1.239,2.14h.541a2.055,2.055,0,0,0,1.014-1.734q0-2.973-4.212-3.626a8.317,8.317,0,0,0-4.482,1.532Q68.26,40.555,68.26,48.415v.36a8.882,8.882,0,0,0,.2,1.757q2,6.284,7.838,6.284a21.17,21.17,0,0,0,10.18-3.041,33.935,33.935,0,0,0,7.68-5.135c.285-.258.494-.465.749-.7.046.194.084.382.152.59q1.6,3.424,4.662,3.424h.09q4.009,0,7.41-4.572a29.459,29.459,0,0,0,1.441-2.725l.18.113a9.053,9.053,0,0,0,8.716,5.473h.36q.541,0,1.532-.09a18.651,18.651,0,0,0,6.6-3.015c-1.314,7.054-1.988,11.939-1.988,14.547v.27a5.956,5.956,0,0,0,.09.968,10.613,10.613,0,0,0-.36,2.455v.811a36.646,36.646,0,0,0,.653,4.617q1.982,8.379,6.306,8.379a4.61,4.61,0,0,1,.766-.09,8.306,8.306,0,0,0,4.685-4.415,35.659,35.659,0,0,0,1.96-9.392v-.541q0-1.847-.18-4.752l.016.034-.106-.552v-.631a56.825,56.825,0,0,0-2.14-9.189,25.714,25.714,0,0,1-1.784-3.435c.025,0,.064-.011.072-.011q5.473.541,8,.541a13.53,13.53,0,0,0,1.622-.09c1.191-.251,2.216-.5,3.1-.756.248,1.808.529,2.738.846,2.738a16.02,16.02,0,0,0,3.829,4.257,19.921,19.921,0,0,0,6.059,1.509q1.982-.18,2.41-.18,3.919,0,11.1-3.221c1.467-1.073,2.7-2.05,3.75-2.951,0,.121-.011.239-.011.36v.36a8.883,8.883,0,0,0,.2,1.757q2,6.284,7.838,6.284a21.171,21.171,0,0,0,10.18-3.041,43.815,43.815,0,0,0,4.751-2.81,10.443,10.443,0,0,0-.066,1.121v.45a8.221,8.221,0,0,0,.113,1.4q1.171,3.491,4.234,3.491h.811q3.514,0,6.4-3.469,1.081-1.667,1.532-1.667a6.911,6.911,0,0,1,.946.09,29.327,29.327,0,0,0,16.487-5.135q3.829-2.478,3.942-3.6a1.414,1.414,0,0,0-.878-1.306h-.315a3.877,3.877,0,0,0-1.937.721q-8.491,6.487-15.541,6.487h-1.351q-.428,0-.428-.27a12,12,0,0,0,.36-2.77,5.422,5.422,0,0,0-.405-2.027q-1.126-2.68-4.752-2.68a10.51,10.51,0,0,0-3.311.676c-.078.052-.149.105-.225.158h-.09a2.656,2.656,0,0,0-1.532.586q-3.6,3.739-4.842,4.752-8.626,6.1-13.874,6.1a7.79,7.79,0,0,1-2.095-.338q-3.4-.991-3.4-5.676v-.09a10.706,10.706,0,0,1,1.8-5.451q4.527-5.788,7.816-5.788a1.646,1.646,0,0,1,1.464.743q.45,2.14,1.239,2.14h.541a2.055,2.055,0,0,0,1.014-1.734q0-2.973-4.212-3.626a8.317,8.317,0,0,0-4.482,1.532,16.519,16.519,0,0,0-6.592,6.722,6.128,6.128,0,0,0-1.133,1.544q-7.568,7.613-16.487,7.613h-.811a9.838,9.838,0,0,1-4.775-1.1,6.954,6.954,0,0,1-2.95-4.279v-.09a.25.25,0,0,1,.135-.2,67.409,67.409,0,0,0,6.982-2.365q4.73-3.063,5.225-5.946,0-2.05-3.311-2.5h-.405a6.926,6.926,0,0,0-3.063.833q-2.32.5-6.194,4.144c-.584.886-1.06,1.678-1.444,2.389a14.467,14.467,0,0,1-5.358,1.553h-1.8q-10.045-.743-10.045-1.757a7.724,7.724,0,0,1,1.622-3.851,45.677,45.677,0,0,0,4.527-3.514q4.73-4.888,4.73-6.081A8.963,8.963,0,0,0,143.24,23.3v-.45q0-2.725-2.095-2.725Zm-2.485,39.9.1.507h.135Zm2.219-36.838a.179.179,0,0,0,0,.024q0,3.108-2.793,6.87a22.422,22.422,0,0,1-3.989,4.151,59.245,59.245,0,0,1,4.125-7.327,13.207,13.207,0,0,1,2.662-3.718Zm18.217,14.551h.2q.248,0,.248.158,0,.811-3.424,3.378a16.569,16.569,0,0,1-4.62,1.629,4.719,4.719,0,0,1,.926-1.313A11.986,11.986,0,0,1,158.443,37.739Zm-50.9.946v.541a10.483,10.483,0,0,1-.946,3.108q-3.311,6.87-6.509,6.87h-.45a2.656,2.656,0,0,1-1.96-2.86,5.193,5.193,0,0,1,1.059-2.928q2.68-4.8,7.41-4.707a4.1,4.1,0,0,0,1.4-.022Zm99.89,5.946q1.577,0,1.577,2a15.263,15.263,0,0,1-.428,2.275h-.09a2.391,2.391,0,0,1-.991-.383q-1.869-1.036-1.869-2.117Q205.629,44.812,207.43,44.631Zm-78.178.9c.021.011.044.031.065.044C129.275,45.575,129.253,45.561,129.253,45.532Zm.066.046c1.23.719,2.611,2.964,4.146,6.756a34.945,34.945,0,0,1,1.419,7.252h-.022a2.957,2.957,0,0,0,.09.968q.09,2.523.09,3.288,0,.743-.09,3.2a2.957,2.957,0,0,0-.09.968c.007,0,.013-.01.02-.015a21.356,21.356,0,0,1-1.123,5.151q-1.757,3.2-2.77,3.2h-.338q-.586-.022-2.05-2.815a32.776,32.776,0,0,1-1.667-6.779h.158q-.158-1.487-.158-1.914v-.428l.135-1.667c-.012,0-.022.012-.032.018A18.976,18.976,0,0,0,127.2,59.9q1.642-14.3,2.116-14.323Zm73.245,1.253a6.1,6.1,0,0,0,2.592,3.5,17.171,17.171,0,0,1,2.05,1.081l-.045.27q-2.275,3.176-4.527,3.176a1.6,1.6,0,0,1-.743-.135,2.521,2.521,0,0,1-1.487-2.59q.18-1.487.18-1.554a17.253,17.253,0,0,1,1.541-3.319c.149-.144.3-.291.439-.427Z" transform="translate(-68.26 -15.488)"/><g transform="translate(150.16 7.021) rotate(-14.934)"><g transform="translate(0 0)"><path class="b" d="M25.448.493a.666.666,0,0,0-.335-.416h0a.666.666,0,0,0-.9.277v0c0,.018-3.373,6.563-13.729,7.7A13.158,13.158,0,0,0,6.569,9.1a10.874,10.874,0,0,0-5.22,4.782A11.239,11.239,0,0,0,.065,20.435a11.006,11.006,0,0,0,1.611,4.642l.787,1.082a11.785,11.785,0,0,0,8.409,4.168,14.218,14.218,0,0,0,6.478-1.1,14.858,14.858,0,0,0,5.709-4.241C27.008,20.2,28.887,12.162,25.448.493ZM2.846,24.419h0a9.571,9.571,0,0,1-.67-1.251A9.711,9.711,0,0,1,1.4,20.292a9.9,9.9,0,0,1,1.1-5.775,9.564,9.564,0,0,1,4.6-4.2,11.845,11.845,0,0,1,3.524-.923C17.465,8.652,21.486,5.61,23.561,3.4a28.208,28.208,0,0,1-6.143,10.8l-.4-4.076a.666.666,0,0,0-1.33.075c0,.018,0,.036.005.054l.519,5.238A42.614,42.614,0,0,1,2.846,24.419Zm19.184-.291v0a13.527,13.527,0,0,1-5.194,3.877A12.876,12.876,0,0,1,10.95,29a10.525,10.525,0,0,1-7.3-3.484A50.14,50.14,0,0,0,10,22.138l5.845,1.1a.666.666,0,0,0,.239-1.31l-4.492-.85a38.828,38.828,0,0,0,5.764-4.845.673.673,0,0,0,.088-.092A30.038,30.038,0,0,0,24.885,3.587c2.273,9.7.533,16.443-2.855,20.541Z"/></g></g></g></g></g></svg>