<svg xmlns="http://www.w3.org/2000/svg" xmlns:xlink="http://www.w3.org/1999/xlink" width="335.613" height="310.466" viewBox="0 0 335.613 310.466"><defs><style>.a{fill:#fff;}.b,.w{opacity:0.5;}.c{fill:url(#a);}.d{fill:#f2f2f2;}.e{fill:#e0e0e0;}.f,.i,.n{fill:#4ac785;}.f,.l{opacity:0.7;}.g{fill:#f5f5f5;}.h{clip-path:url(#d);}.i,.j{opacity:0.4;}.j{fill:#bdbdbd;}.k{fill:url(#h);}.l,.o{fill:#3ad29f;}.m{fill:url(#i);}.p{fill:#f55f44;}.q{fill:#fdd835;}.r{fill:url(#j);}.s{fill:url(#k);}.t{fill:url(#l);}.u,.w{fill:#47e6b1;}.v{fill:#4d8af0;}</style><linearGradient id="a" x1="0.5" y1="1" x2="0.5" gradientUnits="objectBoundingBox"><stop offset="0" stop-color="gray" stop-opacity="0.251"/><stop offset="0.54" stop-color="gray" stop-opacity="0.122"/><stop offset="1" stop-color="gray" stop-opacity="0.102"/></linearGradient><clipPath id="d"><rect class="a" width="57.314" height="38.636"/></clipPath><linearGradient id="h" x1="0.518" y1="1.092" x2="0.518" y2="-0.251" xlink:href="#a"/><linearGradient id="i" x1="0.6" y1="0.66" x2="0.6" y2="0.086" xlink:href="#a"/><linearGradient id="j" x1="0.5" y1="1" x2="0.5" gradientUnits="objectBoundingBox"><stop offset="0" stop-color="#b3b3b3" stop-opacity="0.251"/><stop offset="0.54" stop-color="#b3b3b3" stop-opacity="0.102"/><stop offset="1" stop-color="#b3b3b3" stop-opacity="0.051"/></linearGradient><linearGradient id="k" x1="0.5" y1="0.999" x2="0.5" gradientUnits="objectBoundingBox"><stop offset="0" stop-opacity="0.122"/><stop offset="0.55" stop-opacity="0.09"/><stop offset="1" stop-opacity="0.02"/></linearGradient><linearGradient id="l" x1="0.5" y1="1" x2="0.5" y2="0" xlink:href="#k"/></defs><g transform="translate(0 0.017)"><g class="b" transform="translate(61.443 51.891)"><rect class="c" width="178.745" height="240.192"/></g><rect class="d" width="173.16" height="231.813" transform="translate(63.771 55.151)"/><rect class="e" width="59.582" height="1.861" transform="translate(77.271 64.925)"/><rect class="f" width="59.582" height="1.861" transform="translate(77.271 73.303)"/><rect class="e" width="59.582" height="1.861" transform="translate(145.697 64.925)"/><rect class="e" width="59.582" height="1.861" transform="translate(155.005 117.993)"/><rect class="e" width="59.582" height="1.861" transform="translate(156.404 123.111)"/><rect class="e" width="59.582" height="1.861" transform="translate(159.198 128.233)"/><rect class="e" width="59.582" height="1.861" transform="translate(155.005 200.382)"/><rect class="e" width="59.582" height="1.861" transform="translate(156.404 205.504)"/><rect class="e" width="59.582" height="1.861" transform="translate(159.198 210.622)"/><g class="b" transform="translate(77.737 98.905)"><rect class="c" width="63.304" height="64.237"/></g><rect class="g" width="62.308" height="61.443" transform="translate(78.136 100.304)"/><g class="b" transform="translate(80.332 104.026)"><rect class="c" width="58.115" height="40.031"/></g><rect class="a" width="57.314" height="38.636" transform="translate(80.731 104.493)"/><g class="h" transform="translate(80.731 104.493)"><path class="i" d="M187.541,306.445,201.974,284.1l6.051,9.773,13.034-13.5,11.173,13.5,9.773-20.013,25.135,40.031L185.68,311.1Z" transform="translate(-192.4 -269.204)"/><circle class="i" cx="4.189" cy="4.189" r="4.189" transform="translate(2.124 1.395)"/></g><g class="b" transform="translate(77.737 181.298)"><rect class="c" width="63.304" height="64.237"/></g><rect class="g" width="62.308" height="61.443" transform="translate(78.136 182.693)"/><g class="b" transform="translate(80.332 186.419)"><rect class="c" width="58.115" height="40.031"/></g><rect class="a" width="57.314" height="38.636" transform="translate(80.731 186.882)"/><g class="h" transform="translate(80.731 186.882)"><path class="j" d="M187.541,513.145,201.974,490.8l6.051,9.777,13.034-13.5,11.173,13.5,9.773-20.017,25.135,40.031-81.46-2.79Z" transform="translate(-192.4 -475.904)"/><circle class="j" cx="4.189" cy="4.189" r="4.189" transform="translate(2.124 1.399)"/></g><g class="b" transform="translate(87.685 40.023)"><rect class="k" width="240.192" height="178.745" transform="translate(0 235.585) rotate(-78.76)"/></g><rect class="a" width="231.813" height="173.16" transform="translate(90.964 271.041) rotate(-78.76)"/><rect class="e" width="122.89" height="1.861" transform="translate(146.411 56.621) rotate(11.24)"/><rect class="e" width="122.89" height="1.861" transform="translate(112.114 229.204) rotate(11.24)"/><rect class="e" width="94.961" height="1.861" transform="translate(110.023 239.701) rotate(11.24)"/><rect class="f" width="35.375" height="1.861" transform="translate(107.938 250.205) rotate(11.24)"/><rect class="f" width="61.443" height="1.861" transform="translate(144.32 67.124) rotate(11.24)"/><rect class="e" width="110.785" height="1.861" transform="translate(142.238 77.624) rotate(11.24)"/><rect class="l" width="26.997" height="1.861" transform="translate(140.149 88.126) rotate(11.24)"/><rect class="e" width="122.89" height="1.861" transform="translate(138.064 98.628) rotate(11.24)"/><g class="b" transform="translate(136.345 142.982)"><rect class="m" width="63.304" height="110.318" transform="translate(0 62.09) rotate(-78.76)"/></g><rect class="a" width="108.923" height="61.909" transform="translate(149.297 143.575) rotate(11.24)"/><rect class="e" width="122.89" height="1.861" transform="translate(135.978 109.132) rotate(11.24)"/><rect class="n" width="13.5" height="45.153" transform="translate(158.852 154.016) rotate(11.24)"/><rect class="o" width="13.5" height="30.257" transform="translate(179.689 173.345) rotate(11.24)"/><rect class="p" width="13.5" height="16.29" transform="translate(200.711 191.761) rotate(11.24)"/><rect class="q" width="13.5" height="33.051" transform="translate(227.719 180.043) rotate(11.24)"/><path class="r" d="M719.255,381.775a62.134,62.134,0,1,0-10.164,94.646l44.917,46.719a3.025,3.025,0,0,0,4.277.084l11.192-10.762a3.025,3.025,0,0,0,.084-4.277L724.656,461.47A62.141,62.141,0,0,0,719.255,381.775ZM705.264,456.89a44.443,44.443,0,1,1,1.236-62.842A44.443,44.443,0,0,1,705.264,456.89Z" transform="translate(-439.662 -242.274)"/><path class="s" d="M679.829,487.6c-5,0-5.006,7.769,0,7.769S684.836,487.6,679.829,487.6Z" transform="translate(-477.946 -317.387)"/><path class="t" d="M723.638,425.155c-13.452-.3-25.693,6.445-32.2,16.633-2.125,3.324,3.906,6.262,6.019,2.954,5.389-8.434,15.629-13.791,26.706-13.512a34.023,34.023,0,0,1,27.762,16.147c2.121,3.5,7.681.319,5.58-3.157C750.7,433.059,737.533,425.486,723.638,425.155Z" transform="translate(-486.915 -279.827)"/><path class="n" d="M731.485,375.855A62.134,62.134,0,1,0,721.321,470.5l44.913,46.723a3.025,3.025,0,0,0,4.277.084L781.7,506.542a3.025,3.025,0,0,0,.084-4.277L736.87,455.546A62.141,62.141,0,0,0,731.485,375.855Zm-13.991,75.083A44.443,44.443,0,1,1,718.73,388.1,44.443,44.443,0,0,1,717.494,450.938Z" transform="translate(-447.017 -238.714)"/><path class="n" d="M692.059,481.67c-5,0-5.006,7.769,0,7.769S697.066,481.67,692.059,481.67Z" transform="translate(-485.301 -313.821)"/><path class="n" d="M735.868,419.235c-13.453-.3-25.693,6.445-32.2,16.633-2.124,3.324,3.906,6.262,6.019,2.954,5.389-8.434,15.629-13.791,26.706-13.512a34.023,34.023,0,0,1,27.762,16.147c2.121,3.5,7.681.319,5.58-3.157C762.921,427.107,749.767,419.534,735.868,419.235Z" transform="translate(-494.27 -276.266)"/><rect class="u" width="1.395" height="7.912" transform="translate(48.409 264.619)"/><rect class="u" width="1.395" height="7.912" transform="translate(53.065 267.876) rotate(90)"/><path class="v" d="M742.219,63.7a1.71,1.71,0,0,1-.953-2.069.82.82,0,0,0,.036-.191h0a.857.857,0,0,0-1.543-.57h0a.82.82,0,0,0-.1.167,1.71,1.71,0,0,1-2.069.953.822.822,0,0,0-.191-.036h0a.857.857,0,0,0-.562,1.551h0a.822.822,0,0,0,.167.1,1.71,1.71,0,0,1,.953,2.069.82.82,0,0,0-.036.191h0a.857.857,0,0,0,1.555.562h0a.819.819,0,0,0,.1-.167,1.71,1.71,0,0,1,2.069-.953.822.822,0,0,0,.191.036h0a.857.857,0,0,0,.57-1.543h0A.822.822,0,0,0,742.219,63.7Z" transform="translate(-514.276 -60.54)"/><path class="q" d="M307.794,210.849a1.71,1.71,0,0,1-.953-2.069.82.82,0,0,0,.036-.191h0a.857.857,0,0,0-1.543-.57h0a.821.821,0,0,0-.1.167,1.71,1.71,0,0,1-2.069.953.821.821,0,0,0-.191-.036h0a.857.857,0,0,0-.57,1.543h0a.821.821,0,0,0,.167.1,1.71,1.71,0,0,1,.953,2.069.821.821,0,0,0-.036.191h0a.857.857,0,0,0,1.543.57h0a.822.822,0,0,0,.1-.167,1.71,1.71,0,0,1,2.069-.953.822.822,0,0,0,.191.036h0a.857.857,0,0,0,.57-1.543h0A.822.822,0,0,0,307.794,210.849Z" transform="translate(-253.011 -149.037)"/><path class="q" d="M925.574,818.109a1.71,1.71,0,0,1-.953-2.069.813.813,0,0,0,.036-.191h0a.857.857,0,0,0-1.543-.57h0a.824.824,0,0,0-.1.167,1.71,1.71,0,0,1-2.069.953.822.822,0,0,0-.191-.036h0a.857.857,0,0,0-.57,1.543h0a.823.823,0,0,0,.167.1,1.71,1.71,0,0,1,.953,2.069.819.819,0,0,0-.036.191h0a.857.857,0,0,0,1.543.57h0a.825.825,0,0,0,.1-.167,1.71,1.71,0,0,1,2.069-.953.822.822,0,0,0,.191.036h0a.857.857,0,0,0,.57-1.543h0A.826.826,0,0,0,925.574,818.109Z" transform="translate(-624.549 -514.248)"/><circle class="p" cx="2.794" cy="2.794" r="2.794" transform="translate(125.214 27.222)"/><circle class="p" cx="2.794" cy="2.794" r="2.794" transform="translate(325.371 62.13)"/><circle class="v" cx="2.794" cy="2.794" r="2.794" transform="translate(309.547 145.452)"/><circle class="w" cx="2.794" cy="2.794" r="2.794" transform="translate(0 8.599)"/></g></svg>