<svg xmlns="http://www.w3.org/2000/svg" xmlns:xlink="http://www.w3.org/1999/xlink" width="361" height="280.185" viewBox="0 0 361 280.185"><defs><style>.a{fill:url(#a);}.b,.i,.k,.l,.m,.v{fill:#4ac785;}.b{opacity:0.7;}.c{fill:#f5f5f5;}.d,.u{fill:#fff;}.e{fill:#ff5252;}.f{fill:#ff0;}.g{fill:#69f0ae;}.h{fill:url(#b);}.j,.k,.u{opacity:0.2;}.l{opacity:0.5;}.m{opacity:0.8;}.n{fill:#64ffda;}.o{fill:url(#c);}.p{fill:url(#d);}.q{fill:url(#e);}.r,.s,.t,.x{fill:none;stroke:#fff;stroke-linecap:round;stroke-linejoin:round;}.s{stroke-dasharray:0 4.07;}.t{opacity:0.3;}.v{opacity:0.1;}.w{fill:url(#f);}.x{stroke-dasharray:0 4.04;}</style><linearGradient id="a" x1="0.65" y1="0.991" x2="0.65" y2="0.279" gradientUnits="objectBoundingBox"><stop offset="0" stop-color="gray" stop-opacity="0.251"/><stop offset="0.54" stop-color="gray" stop-opacity="0.122"/><stop offset="1" stop-color="gray" stop-opacity="0.102"/></linearGradient><linearGradient id="b" x1="0.525" y1="-3.598" x2="0.525" y2="-4.603" xlink:href="#a"/><linearGradient id="c" x1="-0.672" y1="-1.135" x2="-0.672" y2="-2.136" xlink:href="#a"/><linearGradient id="d" x1="-1.222" y1="-1.048" x2="-1.222" y2="-2.049" xlink:href="#a"/><linearGradient id="e" x1="0.5" y1="1" x2="0.5" y2="0" xlink:href="#a"/><linearGradient id="f" x1="0.5" y1="1" x2="0.5" y2="0" xlink:href="#a"/></defs><g transform="translate(0)"><path class="a" d="M38.44,112.526l3.493,10.735,53.962,165.9,258.315-84.3-53.962-165.9L296.759,28.23Z" transform="translate(-23.043 -16.922)"/><path class="b" d="M19.59,159.7l3.3,10.17L74.017,327.032l249.9-81.548L272.794,88.316l-3.3-10.166Z" transform="translate(-11.743 -46.847)"/><rect class="c" width="262.869" height="10.691" transform="translate(20.62 97.044) rotate(-18.072)"/><rect class="d" width="262.869" height="165.271" transform="translate(23.967 107.135) rotate(-18.02)"/><path class="e" d="M217.877,344.724a3.052,3.052,0,1,1-3.849-1.959A3.052,3.052,0,0,1,217.877,344.724Z" transform="translate(-186.866 -245.536)"/><path class="f" d="M238.157,338.1a3.052,3.052,0,1,1-3.849-1.959A3.052,3.052,0,0,1,238.157,338.1Z" transform="translate(-199.023 -241.567)"/><path class="g" d="M258.447,331.474a3.052,3.052,0,1,1-3.849-1.959A3.052,3.052,0,0,1,258.447,331.474Z" transform="translate(-211.186 -237.593)"/><rect class="h" width="84.264" height="7.33" transform="matrix(0.951, -0.31, 0.31, 0.951, 34.329, 120.281)"/><rect class="i" width="83.655" height="6.108" transform="matrix(0.951, -0.31, 0.31, 0.951, 34.714, 120.476)"/><rect class="i" width="83.655" height="6.108" transform="matrix(0.951, -0.31, 0.31, 0.951, 193.192, 68.768)"/><rect class="j" width="83.655" height="6.108" transform="matrix(0.951, -0.31, 0.31, 0.951, 193.192, 68.768)"/><rect class="k" width="3.665" height="3.665" transform="matrix(0.951, -0.31, 0.31, 0.951, 47.377, 159.405)"/><rect class="l" width="3.665" height="3.665" transform="matrix(0.951, -0.31, 0.31, 0.951, 283.641, 82.319)"/><path class="k" d="M305.987,477.164a6.717,6.717,0,1,1-8.464-4.306A6.717,6.717,0,0,1,305.987,477.164Z" transform="translate(-235.398 -323.413)"/><path class="l" d="M824.8,307.836a6.717,6.717,0,1,1-8.464-4.326A6.717,6.717,0,0,1,824.8,307.836Z" transform="translate(-546.396 -221.898)"/><rect class="l" width="37.856" height="3.665" transform="matrix(0.951, -0.31, 0.31, 0.951, 75.241, 150.313)"/><rect class="m" width="37.856" height="3.665" transform="matrix(0.951, -0.31, 0.31, 0.951, 85.634, 182.271)"/><rect class="b" width="37.856" height="3.665" transform="matrix(0.951, -0.31, 0.31, 0.951, 134.976, 166.17)"/><rect class="l" width="37.856" height="3.665" transform="matrix(0.951, -0.31, 0.31, 0.951, 184.319, 150.073)"/><rect class="k" width="37.856" height="3.665" transform="matrix(0.951, -0.31, 0.31, 0.951, 233.665, 133.972)"/><rect class="m" width="37.856" height="3.665" transform="matrix(0.951, -0.31, 0.31, 0.951, 96.027, 214.229)"/><rect class="b" width="37.856" height="3.665" transform="matrix(0.951, -0.31, 0.31, 0.951, 145.369, 198.128)"/><rect class="l" width="37.856" height="3.665" transform="matrix(0.951, -0.31, 0.31, 0.951, 194.712, 182.031)"/><rect class="k" width="37.856" height="3.665" transform="matrix(0.951, -0.31, 0.31, 0.951, 244.058, 165.93)"/><rect class="k" width="37.856" height="3.665" transform="matrix(0.951, -0.31, 0.31, 0.951, 124.583, 134.211)"/><rect class="n" width="37.856" height="3.665" transform="matrix(0.951, -0.31, 0.31, 0.951, 173.926, 118.115)"/><rect class="k" width="37.856" height="3.665" transform="matrix(0.951, -0.31, 0.31, 0.951, 223.268, 102.019)"/><rect class="o" width="18.93" height="18.942" transform="matrix(0.951, -0.31, 0.31, 0.951, 54.528, 184.383)"/><rect class="p" width="18.93" height="18.942" transform="matrix(0.951, -0.31, 0.31, 0.951, 64.92, 216.342)"/><rect class="i" width="17.095" height="17.107" transform="matrix(0.951, -0.31, 0.31, 0.951, 55.684, 184.971)"/><rect class="i" width="17.095" height="17.107" transform="matrix(0.951, -0.31, 0.31, 0.951, 66.077, 216.929)"/><path class="q" d="M253.6,100.25,149.37,134.265l15.97,49.1,14.848-4.847c.056,2.163-.044,8.948-3.473,10.635,0,0,7.27.236,11.776-13.346l81.075-26.456Z" transform="translate(-149.37 -100.25)"/><path class="i" d="M256.223,106.36l-98.683,32.2,15.121,46.464,14.059-4.586c.056,2.051-.044,8.472-3.289,10.07,0,0,6.881.22,11.151-12.637l76.761-25.034Z" transform="translate(-154.268 -103.913)"/><line class="r" transform="translate(13.102 37.227)"/><line class="s" x2="9.829" y2="30.213" transform="translate(13.607 38.773)"/><line class="r" transform="translate(23.689 69.764)"/><line class="r" y1="26.709" x2="81.848" transform="translate(24.438 46.344)"/><line class="t" y1="22.543" x2="69.079" transform="translate(26.244 40.279)"/><line class="t" y1="22.539" x2="69.075" transform="translate(23.412 31.567)"/><line class="t" y1="22.539" x2="69.075" transform="translate(20.576 22.851)"/><line class="t" y1="22.543" x2="69.079" transform="translate(17.74 14.135)"/><path class="u" d="M250.113,184.965a1.433,1.433,0,0,1-.028-.4,2.463,2.463,0,0,1,2.075-2.243l.3-.06a9.867,9.867,0,0,0,5.235-2.712c2.051-2.4,1.814-6.052,1.462-9.008a5.147,5.147,0,0,1,.372-2.744c1.27-2.8,4.066-2.075,6.449-2.2a9.165,9.165,0,0,0,8.3-7.33c.3-1.682.108-3.417.348-5.107a10.106,10.106,0,0,1,3.248-6.044,18.627,18.627,0,0,1,6.381-3.3,15.861,15.861,0,0,1,5.572-.917h.1a8.147,8.147,0,0,1,7.3,5.255c.5,1.286.921,2.6,1.366,3.961,2.455,7.554,4.727,14.524,7.562,23.272-3.485,1.106-11.656,3.769-12.773,4.134L281.2,183.507c-8.127,2.652-15.9,5.439-24.962,8.147-1.871.557,0,0-4.062,1.326A65.343,65.343,0,0,1,250.113,184.965Z" transform="translate(-209.741 -125.82)"/><rect class="v" width="103.802" height="2.443" transform="translate(28.513 112.435) rotate(-18.072)"/><path class="w" d="M967.4,369.37,946.139,304l-30.73,10.014,3.028,9.313c-1.354.036-5.608-.028-6.657-2.175,0,0-.148,4.558,8.352,7.382l16.539,50.838Z" transform="translate(-606.396 -222.388)"/><path class="i" d="M968.223,371.579,948.471,310.86l-28.531,9.317,2.8,8.652c-1.258.032-5.207-.024-6.184-2,0,0-.136,4.234,7.759,6.857l15.365,47.233Z" transform="translate(-609.262 -226.5)"/><line class="r" transform="translate(337.627 90.408)"/><line class="x" x1="17.676" y2="5.772" transform="translate(318.413 90.909)"/><line class="r" transform="translate(317.644 96.929)"/><line class="r" x2="16.382" y2="50.365" transform="translate(315.621 97.39)"/><line class="t" x2="13.827" y2="42.502" transform="translate(321.906 98.503)"/><line class="t" x2="13.827" y2="42.502" transform="translate(327.257 96.757)"/><line class="t" x2="13.823" y2="42.502" transform="translate(332.613 95.01)"/><line class="t" x2="13.827" y2="42.502" transform="translate(337.964 93.264)"/><path class="u" d="M951.289,367.868a.878.878,0,0,1,.236,0,1.514,1.514,0,0,1,1.378,1.278.619.619,0,0,0,.036.18,5.961,5.961,0,0,0,1.662,3.2c1.466,1.262,3.717,1.118,5.532.9a3.152,3.152,0,0,1,1.686.228c1.714.8,1.274,2.5,1.346,3.965a5.628,5.628,0,0,0,4.5,5.115c1.033.184,2.1.064,3.136.216a6.2,6.2,0,0,1,3.713,2,11.373,11.373,0,0,1,2.023,3.925,9.772,9.772,0,0,1,.561,3.429v.04a5.019,5.019,0,0,1-3.228,4.494c-.8.3-1.6.569-2.435.841l-14.292,4.678c-.677-2.147-2.311-7.174-2.536-7.859-.853-2.62-1.6-4.879-2.439-7.5-1.626-5-3.337-9.781-4.995-15.357-.341-1.15,0,0-.8-2.5A36.732,36.732,0,0,1,951.289,367.868Z" transform="translate(-627.132 -260.669)"/><rect class="v" width="3.052" height="63.543" transform="matrix(0.951, -0.31, 0.31, 0.951, 285.215, 102.054)"/></g></svg>